# xmcd
# 
# Track frame offsets:
#     150
#     23697
#     41132
#     62080
#     77470
#     92695
#     110880
#     163827
#     178507
#     196155
#     211695
# 
# Disc length: 3009
# 
# Revision: 4
# Processed by: cddbd v1.5.2PL0 Copyright (c) Steve Scherf et al.
# Submitted via: fre:ac v1.0.31
# 
DISCID=8a0bbf0b
DTITLE=The Meters - Rejuvenation
DYEAR=1974
DGENRE=Funk
TTITLE0=People Say
TTITLE1=Love Is For Me
TTITLE2=Just Kissed My Baby
TTITLE3=What'Cha Say
TTITLE4=Jungle Man
TTITLE5=Hey Pocky A-Way
TTITLE6=It Ain't No Use
TTITLE7=Loving You Is On My Mind
TTITLE8=Africa
TTITLE9=Hey Pocky A-Way (Single Version)
TTITLE10=People Say (Single Version)
EXTD=
EXTT0=
EXTT1=
EXTT2=
EXTT3=
EXTT4=
EXTT5=
EXTT6=
EXTT7=
EXTT8=
EXTT9=
EXTT10=
PLAYORDER=
